<svg xmlns="http://www.w3.org/2000/svg" viewBox="0 0 455.3 441.9">
	<style>
		path { fill: #000; }
		@media (prefers-color-scheme: dark) {
			path { fill: #fff; }
		}
	</style>
	<path d="M101.8,376.1v6.1c-19.3-2.7-35-10.5-47.1-23.5c-12.1-13-18.1-27.4-18.1-43.3c0-8.3,1.3-18,4-29c2.7-11,4-19.6,4-25.7 c0-8.3-3.5-16.1-10.5-23.3c-7-7.2-16.7-11.6-29-13.3V217c12.4-1.6,22-6,29-13.2c7-7.2,10.5-15,10.5-23.4c0-6.1-1.3-14.7-4-25.7 c-2.7-11-4-20.7-4-29.1c0-15.7,6-30.1,18.1-43.2c12.1-13.1,27.8-20.9,47.1-23.4v6.1c-13.5,3.2-23.4,8.5-29.7,15.9 c-6.3,7.3-9.4,15.4-9.4,24.2c0,6.8,1.3,15.8,3.9,27c2.6,11.2,3.9,20.7,3.9,28.5c0,11.7-4.3,23-12.8,34 c-8.6,11-21.3,19.5-38.3,25.5c16.6,6.1,29.3,14.8,38.1,26c8.7,11.2,13.1,22.7,13.1,34.3c0,7.9-1.3,17.4-3.9,28.5 c-2.6,11.2-3.9,20.1-3.9,27c0,8.8,3.1,16.8,9.4,24.2C78.4,367.4,88.3,372.8,101.8,376.1z"/>
	<path d="M383.2,360.1c6.3-7.3,9.4-15.4,9.4-24.2c0-6.8-1.3-15.8-3.9-27c-2.6-11.2-3.9-20.7-3.9-28.5c0-11.7,4.4-23.1,13.1-34.3 c8.7-11.2,21.4-19.9,38.1-26c-17-6-29.8-14.5-38.3-25.5c-8.6-11-12.8-22.3-12.8-34c0-7.9,1.3-17.4,3.9-28.5 c2.6-11.2,3.9-20.1,3.9-27c0-8.8-3.1-16.8-9.4-24.2c-6.3-7.3-16.2-12.6-29.7-15.9V59c19.3,2.5,35,10.3,47.1,23.4 c12.1,13.1,18.1,27.5,18.1,43.2c0,8.4-1.3,18.1-4,29.1c-2.7,11-4,19.5-4,25.7c0,8.4,3.5,16.2,10.5,23.4c7,7.2,16.7,11.6,29,13.2 v7.1c-12.4,1.6-22,6-29,13.3c-7,7.2-10.5,15-10.5,23.3c0,6.1,1.3,14.7,4,25.7c2.7,11,4,20.7,4,29c0,15.8-6,30.3-18.1,43.3 c-12.1,13-27.8,20.8-47.1,23.5v-6.1C367,372.8,376.9,367.4,383.2,360.1z"/>
	<path fill-rule="evenodd" d="M117.65 150.95 Q117.65 130.95 137.65 130.95 L317.65 130.95 Q337.65 130.95 337.65 150.95 L337.65 270.95 Q337.65 290.95 317.65 290.95 L197.65 290.95 L162.65 325.95 Q155.65 332.95 155.65 320.95 L155.65 290.95 L137.65 290.95 Q117.65 290.95 117.65 270.95 Z M171.65 210.95 A11 11 0 1 0 193.65 210.95 A11 11 0 1 0 171.65 210.95 Z M216.65 210.95 A11 11 0 1 0 238.65 210.95 A11 11 0 1 0 216.65 210.95 Z M261.65 210.95 A11 11 0 1 0 283.65 210.95 A11 11 0 1 0 261.65 210.95 Z"/>
</svg>
